<svg width="27" height="27" viewBox="0 0 27 27" fill="none" xmlns="http://www.w3.org/2000/svg">
<path d="M9.83017 6.93562C9.8128 5.78601 8.73747 3.81496 9.59547 2.93033C10.4535 2.04569 15.177 3.19442 18.3613 6.28383C21.5455 9.37324 22.2738 11.4289 22.3269 14.9392C22.369 17.7274 21.0065 19.8396 19.8051 21.0779C18.6037 22.3162 16.2798 22.5876 14.7752 22.7227C13.2705 22.8577 10.1487 22.1814 9.35438 21.5843C8.56005 20.9873 6.47011 19.8849 6.14914 17.1009C5.82817 14.3169 7.24822 11.5577 7.96859 10.6241C8.68895 9.69055 9.85125 8.32973 9.83017 6.93562Z" fill="url(#paint0_linear_108_2280)"/>
<path d="M10.3963 17.8748C11.1544 20.289 12.8798 20.5354 13.6192 20.5354C14.3586 20.5354 15.591 20.289 16.3529 19.8764C17.1148 19.4638 17.5628 19.3031 18.4072 17.4051C19.2516 15.5071 18.5851 13.57 17.4489 11.6675C16.5606 10.18 15.482 8.38548 14.4416 8.74966C13.4013 9.11385 13.5267 10.079 12.2263 12.0951C10.9258 14.1111 9.63815 15.4606 10.3963 17.8748Z" fill="#F0D269"/>
<defs>
<linearGradient id="paint0_linear_108_2280" x1="10.7916" y1="1.34351" x2="15.8629" y2="25.4951" gradientUnits="userSpaceOnUse">
<stop stop-color="#DC7E4F"/>
<stop offset="1" stop-color="#E9A44A"/>
</linearGradient>
</defs>
</svg>
