<svg width="19" height="21" viewBox="0 0 19 21" fill="none" xmlns="http://www.w3.org/2000/svg">
<path d="M5.85206 18.742C6.28721 19.2922 6.84171 19.7364 7.47367 20.041C8.10564 20.3455 8.79855 20.5025 9.50006 20.5C10.2016 20.5025 10.8945 20.3455 11.5264 20.041C12.1584 19.7364 12.7129 19.2922 13.1481 18.742C10.7271 19.0697 8.27303 19.0697 5.85206 18.742ZM16.2501 7.5V8.204C16.2501 9.049 16.4901 9.875 16.9421 10.578L18.0501 12.301C19.0611 13.875 18.2891 16.014 16.5301 16.511C11.9338 17.8127 7.06635 17.8127 2.47006 16.511C0.711062 16.014 -0.0609379 13.875 0.950062 12.301L2.05806 10.578C2.51128 9.86919 2.75178 9.04531 2.75106 8.204V7.5C2.75106 3.634 5.77306 0.5 9.50006 0.5C13.2271 0.5 16.2501 3.634 16.2501 7.5Z" fill="#787878"/>
</svg>
